<?xml version="1.0" encoding="utf-8"?>
<!-- Generator: Adobe Illustrator 23.1.1, SVG Export Plug-In . SVG Version: 6.00 Build 0)  -->
<svg version="1.1" id="Layer_1" xmlns="http://www.w3.org/2000/svg" xmlns:xlink="http://www.w3.org/1999/xlink" x="0px" y="0px"
	 viewBox="0 0 684 180" style="enable-background:new 0 0 684 180;" xml:space="preserve">
<style type="text/css">
	.st0{fill:#636466;}
	.st1{fill:#E65A41;}
</style>
<g>
	<g>
		<path class="st0" d="M188.42,139.16h-9.06l-1.6,4.64h-4.14l8.21-21.94h4.11l8.4,21.94h-4.29L188.42,139.16z M187.3,135.96
			l-3.42-9.78l-3.39,9.78H187.3z"/>
		<path class="st0" d="M210.77,127.38v16.43h-2.6l-0.75-2.29c-0.67,0.86-1.42,1.52-2.26,1.97c-0.84,0.46-1.88,0.69-3.13,0.69
			c-1.71,0-3.07-0.5-4.08-1.49c-1-0.99-1.5-2.44-1.5-4.34v-10.97h3.73v10.09c0,2.24,0.89,3.35,2.66,3.35c0.88,0,1.65-0.24,2.32-0.71
			c0.67-0.47,1.3-1.12,1.88-1.96v-10.78H210.77z"/>
		<path class="st0" d="M226.52,127.84c1.02,0.63,1.84,1.56,2.46,2.81c0.62,1.24,0.92,2.74,0.92,4.5c0,1.84-0.34,3.45-1.03,4.83
			c-0.69,1.38-1.62,2.44-2.79,3.18c-1.17,0.74-2.46,1.11-3.86,1.11c-1.46,0-2.71-0.3-3.73-0.91v6.9h-3.76v-22.88h2.66l0.69,2.13
			h0.06c0.69-0.9,1.43-1.56,2.21-1.98c0.78-0.42,1.71-0.63,2.77-0.63C224.37,126.9,225.49,127.22,226.52,127.84z M220.2,130.84
			c-0.6,0.41-1.17,1.02-1.71,1.83v7.49c0.46,0.36,0.92,0.61,1.38,0.77c0.46,0.16,1.01,0.24,1.66,0.24c0.81,0,1.57-0.22,2.26-0.67
			c0.69-0.45,1.24-1.11,1.65-1.98c0.41-0.87,0.61-1.89,0.61-3.06c0-1.73-0.36-3.04-1.07-3.92c-0.71-0.88-1.62-1.32-2.73-1.32
			C221.48,130.23,220.8,130.43,220.2,130.84z"/>
		<path class="st0" d="M247.86,141.14l-0.28,2.48c-0.4,0.33-1.07,0.5-2.01,0.5c-1.59,0-2.54-0.74-2.85-2.23
			c-1.34,1.59-3.06,2.38-5.17,2.38c-1.55,0-2.84-0.43-3.89-1.3c-1.05-0.87-1.57-2.06-1.57-3.59c0-1.63,0.62-2.87,1.87-3.71
			c1.24-0.85,2.82-1.27,4.72-1.27c1.15,0,2.35,0.13,3.61,0.38v-1.63c0-2.09-1.16-3.13-3.48-3.13c-1.5,0-2.97,0.5-4.39,1.5
			l-1.47-2.38c0.86-0.71,1.84-1.26,2.95-1.65c1.11-0.39,2.27-0.58,3.48-0.58c2.19,0,3.86,0.52,4.98,1.55
			c1.13,1.03,1.69,2.52,1.69,4.47v6.99c0,0.84,0.32,1.25,0.97,1.25C247.41,141.17,247.69,141.16,247.86,141.14z M240.65,140.82
			c0.71-0.4,1.27-0.93,1.69-1.6v-2.01c-0.42-0.1-0.94-0.2-1.55-0.28c-0.62-0.08-1.2-0.12-1.74-0.12c-1,0-1.82,0.19-2.44,0.58
			c-0.63,0.39-0.94,0.99-0.94,1.8c0,0.75,0.27,1.31,0.8,1.68c0.53,0.37,1.16,0.55,1.9,0.55
			C239.17,141.42,239.94,141.22,240.65,140.82z"/>
		<path class="st0" d="M250.45,127.38h2.88l0.63,2.41h0.09c0.82-1.92,2.13-2.88,3.95-2.88c0.77,0,1.44,0.16,2.01,0.47l-0.66,3.39
			c-0.56-0.21-1.11-0.31-1.63-0.31c-0.77,0-1.45,0.27-2.04,0.81c-0.59,0.54-1.07,1.41-1.44,2.6v9.94h-3.79V127.38z"/>
		<path class="st0" d="M277.16,141.14l-0.28,2.48c-0.4,0.33-1.07,0.5-2.01,0.5c-1.59,0-2.54-0.74-2.85-2.23
			c-1.34,1.59-3.06,2.38-5.17,2.38c-1.55,0-2.84-0.43-3.89-1.3c-1.05-0.87-1.57-2.06-1.57-3.59c0-1.63,0.62-2.87,1.87-3.71
			c1.24-0.85,2.82-1.27,4.72-1.27c1.15,0,2.35,0.13,3.61,0.38v-1.63c0-2.09-1.16-3.13-3.48-3.13c-1.5,0-2.97,0.5-4.39,1.5
			l-1.47-2.38c0.86-0.71,1.84-1.26,2.95-1.65c1.11-0.39,2.27-0.58,3.48-0.58c2.19,0,3.86,0.52,4.98,1.55
			c1.13,1.03,1.69,2.52,1.69,4.47v6.99c0,0.84,0.32,1.25,0.97,1.25C276.71,141.17,277,141.16,277.16,141.14z M269.95,140.82
			c0.71-0.4,1.27-0.93,1.69-1.6v-2.01c-0.42-0.1-0.94-0.2-1.55-0.28c-0.62-0.08-1.2-0.12-1.74-0.12c-1,0-1.82,0.19-2.44,0.58
			c-0.63,0.39-0.94,0.99-0.94,1.8c0,0.75,0.27,1.31,0.8,1.68c0.53,0.37,1.16,0.55,1.9,0.55
			C268.48,141.42,269.24,141.22,269.95,140.82z"/>
		<path class="st0" d="M293.87,127.38l-6.68,16.43h-3.48l-6.52-16.43h4.11l4.23,12.45l4.33-12.45H293.87z"/>
		<path class="st0" d="M310.84,141.14l-0.28,2.48c-0.4,0.33-1.07,0.5-2.01,0.5c-1.59,0-2.54-0.74-2.85-2.23
			c-1.34,1.59-3.06,2.38-5.17,2.38c-1.55,0-2.84-0.43-3.89-1.3c-1.05-0.87-1.57-2.06-1.57-3.59c0-1.63,0.62-2.87,1.87-3.71
			c1.24-0.85,2.82-1.27,4.72-1.27c1.15,0,2.35,0.13,3.6,0.38v-1.63c0-2.09-1.16-3.13-3.48-3.13c-1.5,0-2.97,0.5-4.39,1.5l-1.47-2.38
			c0.86-0.71,1.84-1.26,2.95-1.65c1.11-0.39,2.27-0.58,3.48-0.58c2.19,0,3.86,0.52,4.98,1.55c1.13,1.03,1.69,2.52,1.69,4.47v6.99
			c0,0.84,0.32,1.25,0.97,1.25C310.39,141.17,310.67,141.16,310.84,141.14z M303.63,140.82c0.71-0.4,1.27-0.93,1.69-1.6v-2.01
			c-0.42-0.1-0.94-0.2-1.55-0.28c-0.62-0.08-1.2-0.12-1.74-0.12c-1,0-1.82,0.19-2.44,0.58c-0.63,0.39-0.94,0.99-0.94,1.8
			c0,0.75,0.27,1.31,0.8,1.68c0.53,0.37,1.16,0.55,1.9,0.55C302.15,141.42,302.92,141.22,303.63,140.82z"/>
		<path class="st0" d="M313.43,127.38H316l0.6,2.45h0.13c0.79-0.96,1.63-1.69,2.51-2.18c0.88-0.49,1.93-0.74,3.17-0.74
			c1.75,0,3.12,0.48,4.11,1.44c0.98,0.96,1.47,2.34,1.47,4.14v11.32h-3.76v-10.12c0-1.17-0.23-2-0.67-2.48
			c-0.45-0.48-1.1-0.72-1.96-0.72c-1.69,0-3.17,0.9-4.42,2.7v10.63h-3.73V127.38z"/>
		<path class="st0" d="M332.92,140.2v-9.62h-2.57v-3.2h2.57v-2.1l1.69-2.16h2.1v4.26h4.01v3.2h-4.01v8.87
			c0,0.96,0.43,1.44,1.29,1.44c0.65,0,1.37-0.15,2.16-0.44l0.94,2.7c-1.23,0.75-2.57,1.13-4.01,1.13
			C334.31,144.27,332.92,142.91,332.92,140.2z"/>
		<path class="st0" d="M355.42,142.26c-1.59-1.33-2.38-3.39-2.38-6.18v-13.63h3.84v13.6c0,1.48,0.4,2.63,1.21,3.43
			c0.8,0.8,1.95,1.21,3.43,1.21c1.48,0,2.63-0.4,3.45-1.21c0.81-0.8,1.22-1.95,1.22-3.43v-13.6h3.81v13.63
			c0,2.79-0.79,4.84-2.38,6.18c-1.59,1.33-3.62,2-6.1,2C359.03,144.26,357,143.59,355.42,142.26z"/>
		<path class="st0" d="M385.74,122.59c1.16,0.4,2.16,0.89,2.99,1.48l-1.62,2.87c-0.77-0.55-1.63-0.98-2.56-1.3
			c-0.94-0.32-1.83-0.47-2.68-0.47c-1.16,0-2.06,0.24-2.71,0.73c-0.65,0.49-0.98,1.15-0.98,1.98c0,0.57,0.19,1.06,0.58,1.46
			c0.39,0.41,0.86,0.74,1.42,1.01c0.56,0.26,1.37,0.6,2.42,1.01c1.42,0.53,2.56,1.01,3.42,1.45c0.85,0.44,1.6,1.06,2.23,1.86
			c0.63,0.8,0.95,1.82,0.95,3.04c0,1.3-0.33,2.44-0.99,3.42c-0.66,0.98-1.6,1.73-2.82,2.26c-1.22,0.53-2.63,0.79-4.24,0.79
			c-1.32,0-2.66-0.18-4.01-0.53c-1.35-0.36-2.54-0.85-3.55-1.48l1.25-3.14c0.98,0.53,2.01,0.95,3.11,1.27
			c1.1,0.32,2.17,0.47,3.2,0.47c1.34,0,2.34-0.26,3-0.78c0.66-0.52,0.99-1.21,0.99-2.06c0-0.81-0.35-1.45-1.04-1.91
			c-0.69-0.46-1.76-0.94-3.2-1.45c-1.46-0.51-2.64-0.98-3.52-1.42c-0.88-0.44-1.64-1.07-2.27-1.89c-0.63-0.82-0.95-1.9-0.95-3.22
			c0-1.2,0.31-2.26,0.95-3.17c0.63-0.92,1.53-1.62,2.68-2.12c1.16-0.5,2.51-0.75,4.06-0.75
			C383.28,121.99,384.58,122.19,385.74,122.59z"/>
		<path class="st0" d="M406.37,122.53c1.23,0.36,2.24,0.84,3.04,1.45l-1.8,2.99c-1.42-0.98-3.12-1.46-5.09-1.46
			c-1.2,0-2.29,0.28-3.26,0.84c-0.98,0.56-1.75,1.42-2.33,2.58c-0.58,1.16-0.87,2.59-0.87,4.3c0,2.48,0.59,4.35,1.77,5.61
			c1.18,1.26,2.74,1.89,4.67,1.89c1.08,0,2.06-0.16,2.94-0.47c0.88-0.32,1.72-0.8,2.52-1.45l1.92,2.78c-0.89,0.81-2,1.46-3.31,1.95
			c-1.31,0.49-2.75,0.73-4.32,0.73c-1.99,0-3.76-0.42-5.31-1.27c-1.55-0.84-2.76-2.1-3.63-3.77c-0.87-1.67-1.31-3.69-1.31-6.07
			c0-2.38,0.45-4.41,1.36-6.08c0.9-1.68,2.14-2.94,3.71-3.8c1.57-0.85,3.35-1.28,5.37-1.28
			C403.82,121.99,405.13,122.17,406.37,122.53z"/>
		<path class="st0" d="M435.89,121.94c1.26,0.37,2.3,0.86,3.12,1.49l-1.85,3.07c-1.46-1-3.21-1.5-5.24-1.5
			c-1.23,0-2.35,0.29-3.35,0.86c-1,0.58-1.8,1.46-2.4,2.65c-0.6,1.19-0.89,2.67-0.89,4.42c0,2.55,0.61,4.47,1.82,5.77
			c1.21,1.3,2.81,1.94,4.8,1.94c1.11,0,2.12-0.16,3.03-0.49c0.91-0.32,1.77-0.82,2.59-1.49l1.98,2.85c-0.92,0.84-2.05,1.5-3.4,2.01
			c-1.35,0.5-2.83,0.75-4.44,0.75c-2.05,0-3.87-0.43-5.46-1.3c-1.59-0.87-2.83-2.16-3.73-3.87c-0.9-1.71-1.35-3.79-1.35-6.24
			c0-2.45,0.46-4.53,1.39-6.25c0.93-1.72,2.2-3.02,3.81-3.9c1.61-0.88,3.45-1.32,5.52-1.32
			C433.28,121.39,434.63,121.57,435.89,121.94z"/>
		<path class="st0" d="M457.32,141.14l-0.28,2.48c-0.4,0.33-1.07,0.5-2.01,0.5c-1.59,0-2.54-0.74-2.85-2.23
			c-1.34,1.59-3.06,2.38-5.17,2.38c-1.55,0-2.84-0.43-3.89-1.3c-1.05-0.87-1.57-2.06-1.57-3.59c0-1.63,0.62-2.87,1.87-3.71
			c1.24-0.85,2.82-1.27,4.72-1.27c1.15,0,2.35,0.13,3.61,0.38v-1.63c0-2.09-1.16-3.13-3.48-3.13c-1.5,0-2.97,0.5-4.39,1.5
			l-1.47-2.38c0.86-0.71,1.84-1.26,2.95-1.65c1.11-0.39,2.27-0.58,3.48-0.58c2.19,0,3.86,0.52,4.98,1.55
			c1.13,1.03,1.69,2.52,1.69,4.47v6.99c0,0.84,0.32,1.25,0.97,1.25C456.87,141.17,457.15,141.16,457.32,141.14z M450.11,140.82
			c0.71-0.4,1.27-0.93,1.69-1.6v-2.01c-0.42-0.1-0.94-0.2-1.55-0.28c-0.62-0.08-1.2-0.12-1.74-0.12c-1,0-1.82,0.19-2.45,0.58
			c-0.63,0.39-0.94,0.99-0.94,1.8c0,0.75,0.27,1.31,0.8,1.68c0.53,0.37,1.17,0.55,1.9,0.55
			C448.64,141.42,449.4,141.22,450.11,140.82z"/>
		<path class="st0" d="M459.91,127.38h2.57l0.6,2.45h0.13c0.79-0.96,1.63-1.69,2.51-2.18c0.88-0.49,1.93-0.74,3.17-0.74
			c1.75,0,3.12,0.48,4.11,1.44c0.98,0.96,1.47,2.34,1.47,4.14v11.32h-3.76v-10.12c0-1.17-0.23-2-0.67-2.48
			c-0.45-0.48-1.1-0.72-1.96-0.72c-1.69,0-3.17,0.9-4.42,2.7v10.63h-3.73V127.38z"/>
		<path class="st0" d="M493.1,141.14l-0.28,2.48c-0.4,0.33-1.07,0.5-2.01,0.5c-1.59,0-2.54-0.74-2.85-2.23
			c-1.34,1.59-3.06,2.38-5.17,2.38c-1.55,0-2.84-0.43-3.89-1.3c-1.04-0.87-1.57-2.06-1.57-3.59c0-1.63,0.62-2.87,1.87-3.71
			c1.24-0.85,2.82-1.27,4.72-1.27c1.15,0,2.35,0.13,3.61,0.38v-1.63c0-2.09-1.16-3.13-3.48-3.13c-1.5,0-2.97,0.5-4.39,1.5
			l-1.47-2.38c0.86-0.71,1.84-1.26,2.95-1.65c1.11-0.39,2.27-0.58,3.48-0.58c2.19,0,3.86,0.52,4.98,1.55
			c1.13,1.03,1.69,2.52,1.69,4.47v6.99c0,0.84,0.32,1.25,0.97,1.25C492.65,141.17,492.94,141.16,493.1,141.14z M485.89,140.82
			c0.71-0.4,1.27-0.93,1.69-1.6v-2.01c-0.42-0.1-0.94-0.2-1.55-0.28c-0.62-0.08-1.2-0.12-1.74-0.12c-1,0-1.82,0.19-2.45,0.58
			c-0.63,0.39-0.94,0.99-0.94,1.8c0,0.75,0.27,1.31,0.8,1.68c0.53,0.37,1.16,0.55,1.9,0.55
			C484.42,141.42,485.18,141.22,485.89,140.82z"/>
		<path class="st0" d="M498.43,143.36c-1.1-0.61-2-1.57-2.71-2.88c-0.71-1.32-1.07-2.96-1.07-4.92c0-1.88,0.33-3.47,1-4.78
			c0.67-1.31,1.55-2.28,2.65-2.92c1.1-0.64,2.27-0.96,3.53-0.96c1.8,0,3.29,0.52,4.48,1.57v-8.24h3.76v23.57h-2.7l-0.5-1.91h-0.06
			c-0.58,0.73-1.3,1.31-2.15,1.74c-0.85,0.43-1.76,0.64-2.74,0.64C500.7,144.27,499.53,143.97,498.43,143.36z M504.72,140.26
			c0.65-0.38,1.18-0.88,1.6-1.5v-6.74c-0.96-1.13-2.19-1.69-3.7-1.69c-1.17,0-2.15,0.44-2.95,1.33c-0.79,0.89-1.19,2.18-1.19,3.87
			c0,1.15,0.2,2.13,0.6,2.93c0.4,0.8,0.91,1.4,1.54,1.79c0.63,0.39,1.3,0.58,2.01,0.58C503.37,140.82,504.07,140.63,504.72,140.26z"
			/>
		<path class="st0" d="M528.93,141.14l-0.28,2.48c-0.4,0.33-1.07,0.5-2.01,0.5c-1.59,0-2.54-0.74-2.85-2.23
			c-1.34,1.59-3.06,2.38-5.17,2.38c-1.55,0-2.84-0.43-3.89-1.3c-1.04-0.87-1.57-2.06-1.57-3.59c0-1.63,0.62-2.87,1.87-3.71
			c1.24-0.85,2.82-1.27,4.72-1.27c1.15,0,2.35,0.13,3.61,0.38v-1.63c0-2.09-1.16-3.13-3.48-3.13c-1.5,0-2.97,0.5-4.39,1.5
			l-1.47-2.38c0.86-0.71,1.84-1.26,2.95-1.65c1.11-0.39,2.27-0.58,3.48-0.58c2.19,0,3.86,0.52,4.98,1.55
			c1.13,1.03,1.69,2.52,1.69,4.47v6.99c0,0.84,0.32,1.25,0.97,1.25C528.48,141.17,528.76,141.16,528.93,141.14z M521.72,140.82
			c0.71-0.4,1.27-0.93,1.69-1.6v-2.01c-0.42-0.1-0.94-0.2-1.55-0.28c-0.62-0.08-1.2-0.12-1.74-0.12c-1,0-1.82,0.19-2.45,0.58
			c-0.63,0.39-0.94,0.99-0.94,1.8c0,0.75,0.27,1.31,0.8,1.68c0.53,0.37,1.16,0.55,1.9,0.55
			C520.24,141.42,521.01,141.22,521.72,140.82z"/>
	</g>
	<g>
		<g>
			<g>
				<path class="st1" d="M210.39,79.55c0,10.67-8.77,17.47-22.13,17.47c-8.46,0-13.68-1.26-17.23-2.61l-1.11-12.33h5.06l1.11,2.29
					c2.37,4.9,6.4,7.19,12.49,7.19c5.85,0,9.01-2.93,9.01-7.91c0-4.43-2.29-6.56-10.59-9.49c-12.09-4.27-16.52-8.62-16.52-17.47
					c0-9.96,7.91-16.68,20.95-16.68c7.83,0,11.62,1.11,15.49,2.61l1.11,12.33h-5.14l-1.03-2.29c-2.13-4.74-5.61-7.19-10.75-7.19
					c-5.14,0-7.83,3.16-7.83,7.11c0,3.95,2.06,6.17,7.83,8.22C205.57,66.03,210.39,70.46,210.39,79.55z"/>
				<path class="st1" d="M252.05,75.44h-27.27c0.95,8.3,5.61,13.28,12.49,13.28c5.38,0,7.43-0.71,11.62-3.24l2.92,3.24
					c-6.32,5.93-11.62,8.46-19.6,8.46c-10.12,0-19.92-7.11-19.92-19.53c0-13.52,10.28-22.77,21.98-22.77
					C246.91,54.88,252.52,63.74,252.05,75.44z M238.77,49.51l-2.69,2.13l-9.56-5.69c-4.9-2.92-6.24-4.58-6.24-7.59
					c0-2.85,2.29-5.3,5.38-5.3c3.79,0,5.69,2.29,8.22,7.11L238.77,49.51z M238.77,70.69c-0.16-7.9-2.21-11.46-6.8-11.46
					c-4.58,0-7.03,3.79-7.35,11.46H238.77z"/>
				<path class="st1" d="M325.17,96.46c-1.66,0-7.83-0.08-11.3-0.08c-3.48,0-9.17,0.08-11.15,0.08v-4.03l0.55-0.08
					c2.69-0.4,3.64-0.95,3.64-9.25V71.96c0-5.3-1.9-7.51-5.61-7.51c-2.37,0-3.87,0.4-5.77,1.11V83.1c0,8.3,0.95,8.85,3.64,9.25
					l0.55,0.08v4.03c-1.66,0-7.35-0.08-10.83-0.08c-3.48,0-9.17,0.08-11.15,0.08v-4.03l0.55-0.08c2.69-0.4,3.64-0.95,3.64-9.25
					V71.96c0-5.3-1.9-7.51-5.61-7.51c-2.37,0-3.87,0.32-5.77,1.11V83.1c0,8.3,0.95,8.85,3.64,9.25l0.55,0.08v4.03
					c-1.98,0-7.43-0.08-10.91-0.08c-3.56,0-10.43,0.08-12.17,0.08v-3.95l1.82-0.32c2.85-0.47,3.48-1.9,3.48-10.67V70.53
					c0-5.14-0.63-6.09-3.24-7.59l-2.06-1.19v-3.24l16.13-3.32l2.77,1.74L269.92,62c4.43-4.11,9.01-6.88,14.31-6.88
					c5.45,0,9.09,2.37,10.59,6.96c4.43-4.11,9.01-6.96,14.39-6.96c7.19,0,11.3,4.11,11.3,12.17v14.23c0,9.01,0.63,10.28,3.32,10.75
					l1.34,0.24V96.46z"/>
				<path class="st1" d="M364.3,75.44h-27.27c0.95,8.3,5.61,13.28,12.49,13.28c5.38,0,7.43-0.71,11.62-3.24l2.92,3.24
					c-6.32,5.93-11.62,8.46-19.6,8.46c-10.12,0-19.92-7.11-19.92-19.53c0-13.52,10.28-22.77,21.98-22.77
					C359.16,54.88,364.78,63.74,364.3,75.44z M351.02,70.69c-0.16-7.9-2.21-11.46-6.8-11.46c-4.58,0-7.03,3.79-7.35,11.46H351.02z"
					/>
				<path class="st1" d="M402.96,96.46c-1.98,0-8.54-0.08-12.02-0.08c-3.56,0-10.43,0.08-12.17,0.08v-3.95l1.82-0.32
					c2.85-0.47,3.48-1.9,3.48-10.67V51.25c0-5.14-0.63-6.09-3.24-7.59l-2.05-1.19v-3.24l16.13-3.32l2.77,1.74v43.87
					c0,8.77,0.63,10.2,3.48,10.67l1.82,0.32V96.46z"/>
				<path class="st1" d="M463.27,95.36c-1.98,0.79-4.35,1.34-8.77,1.34c-4.59,0-7.43-1.98-8.93-5.22c-4.19,3.4-8.06,5.53-11.94,5.53
					c-6.72,0-11.22-4.11-11.22-10.51c0-5.22,2.85-7.98,9.33-10.36c3-1.11,10.12-3.64,13.52-4.82v-2.29c0-7.04-2.29-8.77-6.96-8.77
					c-0.4,0-0.71,0.08-1.03,0.08c-2.06,8.62-3.87,10.75-7.27,10.75c-3.64,0-5.45-2.13-5.45-5.77c0-4.27,7.83-10.2,19.6-10.2
					c9.72,0,13.83,3.72,13.83,13.12v16.68c0,4.98,1.11,6.56,2.92,6.56c0.63,0,1.11,0,1.82-0.16L463.27,95.36z M445.25,87.69V75.28
					c-2.21,1.11-5.14,2.53-6.56,3.32c-3.4,1.74-4.43,2.92-4.43,5.3c0,3.32,2.37,5.06,5.85,5.06
					C442.01,88.95,443.35,88.64,445.25,87.69z"/>
				<path class="st1" d="M506.67,59.86l-0.95,0.16c-3,0.47-4.66,2.37-7.04,7.9l-12.25,28.06l-7.98,1.26l-12.81-29.33
					c-2.37-5.53-4.03-7.43-7.03-7.9l-0.95-0.16v-3.95c1.9,0,8.62,0.08,12.09,0.08c3.56,0,10.67-0.08,12.57-0.08v3.72l-1.66,0.24
					c-1.9,0.24-2.77,1.19-2.77,2.29c0,1.34,0.55,3.16,1.27,4.98l6.24,15.81l5.69-14.7c0.95-2.53,1.42-4.35,1.42-5.53
					c0-1.34-0.71-2.61-2.53-2.85l-1.66-0.24v-3.72c1.9,0,6.01,0.08,9.49,0.08c3.48,0,6.88-0.08,8.85-0.08V59.86z"/>
				<path class="st1" d="M542.56,75.44h-27.27c0.95,8.3,5.61,13.28,12.49,13.28c5.38,0,7.43-0.71,11.62-3.24l2.92,3.24
					c-6.32,5.93-11.62,8.46-19.6,8.46c-10.12,0-19.92-7.11-19.92-19.53c0-13.52,10.28-22.77,21.98-22.77
					C537.43,54.88,543.04,63.74,542.56,75.44z M529.28,70.69c-0.16-7.9-2.21-11.46-6.8-11.46c-4.58,0-7.03,3.79-7.35,11.46H529.28z"
					/>
				<path class="st1" d="M591.18,96.46c-1.66,0-7.83-0.08-11.3-0.08c-3.48,0-9.64,0.08-11.62,0.08v-3.95l1.03-0.16
					c2.69-0.4,3.64-0.95,3.64-9.25V72.19c0-5.3-2.13-7.75-5.85-7.75c-2.37,0-4.03,0.32-6.01,1.11V83.1c0,8.3,0.95,8.85,3.64,9.25
					l1.03,0.16v3.95c-1.98,0-7.9-0.08-11.38-0.08c-3.56,0-10.43,0.08-12.17,0.08v-3.95l1.82-0.32c2.85-0.47,3.48-1.9,3.48-10.67
					V70.53c0-5.14-0.63-6.09-3.24-7.59l-2.06-1.19v-3.24l16.13-3.32l2.77,1.74L560.43,62c4.43-4.11,9.25-6.88,14.55-6.88
					c7.19,0,11.54,4.11,11.54,12.17v14.23c0,9.01,0.63,10.28,3.32,10.75l1.34,0.24V96.46z"/>
				<path class="st1" d="M613.39,96.46c-1.98,0-7.91-0.08-11.38-0.08c-3.56,0-10.43,0.08-12.17,0.08v-3.95l1.82-0.32
					c2.85-0.47,3.48-1.9,3.48-10.67V70.53c0-5.14-0.63-6.09-3.24-7.59l-2.06-1.19v-3.24l16.13-3.32l2.77,1.74V83.1
					c0,8.3,0.95,8.85,3.64,9.25l1.03,0.16V96.46z M609.44,43.1c0,4.66-4.03,7.83-8.54,7.83c-4.51,0-8.62-3.16-8.62-7.83
					c0-4.51,4.11-7.67,8.62-7.67C605.49,35.44,609.44,38.52,609.44,43.1z"/>
				<path class="st1" d="M648.73,60.81c0,5.14-1.82,7.9-3.95,7.9c-2.13,0-3.87-0.24-9.49-1.11c-1.74,1.19-2.69,1.9-3.87,3v10.75
					c0,9.56,0.47,10.12,6.01,10.91l1.74,0.24v3.95c-1.9,0-10.99-0.08-14.47-0.08c-3.56,0-10.43,0.08-12.17,0.08v-3.95l1.82-0.32
					c2.85-0.47,3.48-1.9,3.48-10.67V70.53c0-5.14-0.63-6.09-3.24-7.59l-2.06-1.19v-3.24l16.13-3.32l2.77,1.74l-1.27,9.72
					c6.24-9.72,9.01-11.62,12.41-11.62C646.75,55.04,648.73,57.1,648.73,60.81z"/>
				<g>
					<path class="st1" d="M420.67,50.18c0,6.51-4.19,11.82-12.64,16.61l-3.07-3.89c2.92-2.39,5.31-5.24,5.98-8.08
						c-3.96-2.84-5.61-4.94-5.61-8.08c0-3.07,2.47-6.13,6.51-6.13C416.93,40.61,420.67,44.5,420.67,50.18z"/>
				</g>
			</g>
		</g>
		<g>
			<g>
				<path class="st1" d="M144.58,63.25h-8.18c0-3.32-2.7-6.02-6.02-6.02c-3.32,0-6.02,2.7-6.02,6.02h-8.18
					c0-3.32-2.7-6.02-6.02-6.02c-3.32,0-6.02,2.7-6.02,6.02h-8.18c0-3.32-2.7-6.02-6.02-6.02c-3.32,0-6.02,2.7-6.02,6.02h-8.18
					c0-3.32-2.7-6.02-6.02-6.02c-3.32,0-6.02,2.7-6.02,6.02H55.5c0-3.32-2.7-6.02-6.02-6.02c-3.32,0-6.02,2.7-6.02,6.02h-8.18
					c0-7.83,6.37-14.2,14.2-14.2c3.95,0,7.54,1.62,10.11,4.24c2.58-2.62,6.16-4.24,10.11-4.24s7.54,1.62,10.11,4.24
					c2.58-2.62,6.16-4.24,10.11-4.24s7.54,1.62,10.11,4.24c2.58-2.62,6.16-4.24,10.11-4.24s7.54,1.62,10.11,4.24
					c2.58-2.62,6.16-4.24,10.11-4.24C138.21,49.05,144.58,55.42,144.58,63.25z"/>
				<path class="st1" d="M124.36,89.48h-8.18c0-3.32-2.7-6.02-6.02-6.02c-3.32,0-6.02,2.7-6.02,6.02h-8.18
					c0-3.32-2.7-6.02-6.02-6.02c-3.32,0-6.02,2.7-6.02,6.02h-8.18c0-3.32-2.7-6.02-6.02-6.02s-6.02,2.7-6.02,6.02H55.5
					c0-7.83,6.37-14.2,14.2-14.2c3.95,0,7.54,1.62,10.11,4.24c2.58-2.62,6.16-4.24,10.11-4.24s7.54,1.62,10.11,4.24
					c2.58-2.62,6.16-4.24,10.11-4.24C117.98,75.28,124.36,81.65,124.36,89.48z"/>
			</g>
		</g>
	</g>
</g>
</svg>
