<?xml version="1.0" encoding="utf-8"?>
<!-- Generator: Adobe Illustrator 23.1.1, SVG Export Plug-In . SVG Version: 6.00 Build 0)  -->
<svg version="1.1" id="Layer_1" xmlns="http://www.w3.org/2000/svg" xmlns:xlink="http://www.w3.org/1999/xlink" x="0px" y="0px"
	 viewBox="0 0 684 180" style="enable-background:new 0 0 684 180;" xml:space="preserve">
<style type="text/css">
	.st0{fill:#E65A41;}
	.st1{fill:#636466;}
</style>
<g>
	<g>
		<path class="st0" d="M203.34,60.29c-5.77-2.06-7.83-4.27-7.83-8.22s2.69-7.12,7.83-7.12c5.14,0,8.62,2.45,10.75,7.19l1.03,2.29
			h5.14l-1.11-12.33c-3.87-1.5-7.67-2.61-15.5-2.61c-13.05,0-20.95,6.72-20.95,16.68c0,8.86,4.43,13.2,16.52,17.47
			c8.3,2.93,10.6,5.06,10.6,9.49c0,4.98-3.16,7.91-9.01,7.91c-6.09,0-10.12-2.29-12.49-7.2l-1.11-2.29h-5.06l1.11,12.33
			c3.56,1.34,8.78,2.61,17.24,2.61c13.36,0,22.14-6.8,22.14-17.47C222.63,69.93,217.81,65.5,203.34,60.29z"/>
		<path class="st0" d="M247.57,54.36c-11.7,0-21.98,9.25-21.98,22.77c0,12.41,9.8,19.53,19.92,19.53c7.99,0,13.28-2.53,19.61-8.46
			l-2.93-3.24c-4.19,2.53-6.25,3.24-11.62,3.24c-6.88,0-11.54-4.98-12.49-13.28h27.28C265.84,63.21,260.23,54.36,247.57,54.36z
			 M237.93,70.17c0.32-7.67,2.77-11.46,7.35-11.46c4.59,0,6.64,3.56,6.8,11.46H237.93z"/>
		<path class="st0" d="M289.87,54.36c-11.7,0-21.98,9.25-21.98,22.77c0,12.41,9.8,19.53,19.92,19.53c7.99,0,13.28-2.53,19.61-8.46
			l-2.93-3.24c-4.19,2.53-6.25,3.24-11.62,3.24c-6.88,0-11.54-4.98-12.49-13.28h27.28C308.14,63.21,302.52,54.36,289.87,54.36z
			 M280.23,70.17c0.32-7.67,2.77-11.46,7.35-11.46c4.59,0,6.64,3.56,6.8,11.46H280.23z"/>
		<path class="st0" d="M352.49,80.92v-43.8l-2.77-1.74L332.8,38.7v3.24l2.06,1.19c3.32,1.9,4.03,3.32,4.03,7.99v4.43
			c-1.9-0.47-4.03-0.79-6.96-0.79c-12.89,0-21.51,7.99-21.51,22.06c0,11.7,7.83,19.61,17.71,19.61c3.95,0,7.43-2.13,11.07-5.22
			l1.27,4.82c4.82-0.16,11.62-0.16,16.68-0.16v-3.95l-1.34-0.24C353.12,91.2,352.49,89.94,352.49,80.92z M338.89,87.64
			c-1.03,0.24-1.82,0.24-3.16,0.24c-6.96,0-11.86-4.82-11.86-16.68c0-7.27,2.61-10.75,7.59-10.75c4.9,0,7.43,3.48,7.43,10.36V87.64z
			"/>
		<path class="st0" d="M405.54,80.29c-2.61,6.56-6.8,10.75-13.13,10.75c-9.41,0-15.65-7.83-15.65-24.35
			c0-14.63,5.77-21.74,14.47-21.74c7.35,0,11.7,5.77,13.84,10.75l0.95,2.21h5.93l-1.19-14.15c-4.03-2.45-10.99-4.27-18.98-4.27
			c-17.55,0-32.34,10.36-32.34,28.46c0,18.66,12.97,28.54,31.63,28.54c8.54,0,16.05-1.9,20.08-4.27l1.19-14.15h-5.93L405.54,80.29z"
			/>
		<path class="st0" d="M457.41,81V66.77c0-8.06-4.35-12.18-11.54-12.18c-5.06,0-9.65,2.53-13.92,6.33v-23.8l-2.77-1.74l-16.13,3.32
			v3.24l2.06,1.19c2.61,1.5,3.24,2.45,3.24,7.59V81c0,8.78-0.63,10.2-3.48,10.67l-1.82,0.32v3.95c1.74,0,8.62-0.08,12.18-0.08
			c3.48,0,9.41,0.08,11.39,0.08v-3.95l-1.03-0.16c-2.69-0.4-3.64-0.95-3.64-9.25V65.03c1.98-0.79,3.64-1.11,6.01-1.11
			c3.72,0,5.85,2.45,5.85,7.75v10.91c0,8.3-0.95,8.86-3.64,9.25l-1.03,0.16v3.95c1.98,0,8.14-0.08,11.62-0.08
			c3.48,0,9.65,0.08,11.31,0.08v-3.95l-1.34-0.24C458.04,91.28,457.41,90.01,457.41,81z"/>
		<path class="st0" d="M553.78,91.99l-1.34-0.24c-2.69-0.47-3.32-1.74-3.32-10.75V66.77c0-8.06-4.35-12.18-11.54-12.18
			c-5.3,0-10.12,2.77-14.55,6.88l0.63-5.06l-2.77-1.74l-16.13,3.32v3.24l2.06,1.19c2.61,1.5,3.24,2.45,3.24,7.59V81
			c0,8.78-0.63,10.2-3.48,10.67l-0.66,0.11c0,0-2,0.16-2.84,0.13c-1.82-0.07-4.25-2.53-4.25-7.52V67.72
			c0-9.41-4.11-13.13-13.84-13.13c-11.78,0-19.61,5.93-19.61,10.2c0,3.64,1.82,5.77,5.46,5.77c3.4,0,5.22-2.13,7.27-10.75
			c0.32,0,0.63-0.08,1.03-0.08c4.67,0,6.96,1.74,6.96,8.78v2.29c-3.4,1.19-10.52,3.72-13.52,4.82c-6.48,2.37-9.33,5.14-9.33,10.36
			c0,6.4,4.51,10.52,11.23,10.52c3.87,0,7.75-2.13,11.94-5.53c1.5,3.24,4.35,5.22,8.93,5.22c4.43,0,6.36-0.24,9.41-0.24
			c1.74,0,8.62-0.08,12.18-0.08c3.48,0,9.41,0.08,11.39,0.08v-3.95l-1.03-0.16c-2.69-0.4-3.64-0.95-3.64-9.25V65.03
			c1.98-0.79,3.64-1.11,6.01-1.11c3.72,0,5.85,2.45,5.85,7.75v10.91c0,8.3-0.95,8.86-3.64,9.25l-1.03,0.16v3.95
			c1.98,0,8.14-0.08,11.62-0.08s9.65,0.08,11.31,0.08V91.99z M486.1,87.17c-1.9,0.95-3.24,1.26-5.14,1.26
			c-3.48,0-5.85-1.74-5.85-5.06c0-2.37,1.03-3.56,4.43-5.3c1.42-0.79,4.35-2.21,6.56-3.32V87.17z"/>
		<path class="st0" d="M618.61,54.36c-4.06,0-7.95,1.12-11.29,3.13c-2.24-3.84-6.4-6.43-11.15-6.43c-2,0-3.9,0.46-5.59,1.27
			c-2.2,1.08-4.05,2.77-5.34,4.84c-2.92-1.66-6.68-2.58-10.99-2.58c-10.91,0-19.69,5.53-19.69,14.39c0,4.98,3.16,9.33,9.01,11.39
			c-5.38,3-7.04,5.14-7.04,7.83c0,2.53,1.9,4.51,4.27,5.69c-4.82,2.93-7.67,6.01-7.67,9.57c0,6.09,7.2,9.65,18.98,9.65
			c13.68,0,24.12-6.8,24.12-16.53c0-6.33-3.87-9.41-13.92-10.2c-3.64-0.32-7.04-0.55-10.75-0.79c-3.32-0.16-4.82-0.95-4.82-2.21
			c0-0.55,0.32-1.19,1.11-1.98c1.42,0.24,3,0.32,4.59,0.32c10.67,0,19.53-5.46,19.53-13.76c0-1.82-0.4-3.48-1.11-4.98
			c-0.02-0.03-0.04-0.08-0.06-0.11c0.52-2.49,2.73-4.36,5.36-4.36c2.56,0,4.71,1.77,5.31,4.15c-3,3.81-4.85,8.76-4.85,14.48
			c0,12.41,9.8,19.53,19.92,19.53c7.99,0,13.28-2.53,19.61-8.46l-2.93-3.24c-4.19,2.53-6.25,3.24-11.62,3.24
			c-6.88,0-11.54-4.98-12.49-13.28h27.28C636.88,63.21,631.26,54.36,618.61,54.36z M578.92,96.34c6.4,0.63,8.3,1.82,8.3,4.67
			c0,3.95-4.98,6.48-10.52,6.48c-7.04,0-12.26-2.21-12.26-7.51c0-1.5,0.24-3,1.11-4.74C569.91,95.63,575.68,96.02,578.92,96.34z
			 M573.39,77.52c-3.95,0-6.09-3.72-6.09-10.2c0-5.14,2.06-8.62,5.93-8.62c4.03,0,6.01,3.87,6.01,10.28
			C579.24,74.2,577.34,77.52,573.39,77.52z M608.96,70.17c0.32-7.67,2.77-11.46,7.35-11.46c4.59,0,6.64,3.56,6.8,11.46H608.96z"/>
	</g>
</g>
<g>
	<g>
		<path class="st0" d="M156.7,62.75h-8.18c0-3.32-2.7-6.02-6.02-6.02c-3.32,0-6.02,2.7-6.02,6.02h-8.18c0-3.32-2.7-6.02-6.02-6.02
			c-3.32,0-6.02,2.7-6.02,6.02h-8.18c0-3.32-2.7-6.02-6.02-6.02c-3.32,0-6.02,2.7-6.02,6.02h-8.18c0-3.32-2.7-6.02-6.02-6.02
			c-3.32,0-6.02,2.7-6.02,6.02h-8.18c0-3.32-2.7-6.02-6.02-6.02s-6.02,2.7-6.02,6.02h-8.18c0-7.83,6.37-14.2,14.2-14.2
			c3.95,0,7.54,1.62,10.11,4.24c2.58-2.62,6.16-4.24,10.11-4.24s7.54,1.62,10.11,4.24c2.58-2.62,6.16-4.24,10.11-4.24
			s7.54,1.62,10.11,4.24c2.58-2.62,6.16-4.24,10.11-4.24s7.54,1.62,10.11,4.24c2.58-2.62,6.16-4.24,10.11-4.24
			C150.33,48.54,156.7,54.91,156.7,62.75z"/>
		<path class="st0" d="M136.47,88.98h-8.18c0-3.32-2.7-6.02-6.02-6.02c-3.32,0-6.02,2.7-6.02,6.02h-8.18c0-3.32-2.7-6.02-6.02-6.02
			c-3.32,0-6.02,2.7-6.02,6.02h-8.18c0-3.32-2.7-6.02-6.02-6.02c-3.32,0-6.02,2.7-6.02,6.02h-8.18c0-7.83,6.37-14.2,14.2-14.2
			c3.95,0,7.54,1.62,10.11,4.24c2.58-2.62,6.16-4.24,10.11-4.24s7.54,1.62,10.11,4.24c2.58-2.62,6.16-4.24,10.11-4.24
			C130.1,74.77,136.47,81.15,136.47,88.98z"/>
	</g>
</g>
<g>
	<path class="st1" d="M187.57,122.07h13.51v3.39h-9.56v6.68h8.34v3.39h-8.34v8.5h-3.95V122.07z"/>
	<path class="st1" d="M214.93,128.06c1.25,0.63,2.26,1.59,3.03,2.9c0.76,1.31,1.14,2.92,1.14,4.84c0,1.92-0.38,3.54-1.14,4.84
		c-0.76,1.31-1.77,2.27-3.03,2.9c-1.25,0.63-2.62,0.94-4.11,0.94s-2.85-0.31-4.11-0.94c-1.25-0.63-2.26-1.59-3.02-2.9
		c-0.76-1.31-1.14-2.92-1.14-4.84c0-1.92,0.38-3.54,1.14-4.84c0.76-1.31,1.77-2.27,3.02-2.9c1.25-0.63,2.62-0.94,4.11-0.94
		S213.68,127.43,214.93,128.06z M207.57,131.85c-0.79,0.94-1.19,2.26-1.19,3.95s0.4,3.01,1.19,3.95c0.79,0.94,1.88,1.41,3.26,1.41
		c1.38,0,2.47-0.47,3.26-1.41c0.79-0.94,1.19-2.26,1.19-3.95s-0.4-3.01-1.19-3.95c-0.79-0.94-1.88-1.41-3.26-1.41
		C209.45,130.44,208.36,130.91,207.57,131.85z"/>
	<path class="st1" d="M222.31,127.59h2.88l0.63,2.41h0.09c0.82-1.92,2.13-2.88,3.95-2.88c0.77,0,1.44,0.16,2.01,0.47l-0.66,3.39
		c-0.56-0.21-1.11-0.31-1.63-0.31c-0.77,0-1.45,0.27-2.04,0.81c-0.59,0.54-1.07,1.41-1.44,2.6v9.94h-3.79V127.59z"/>
	<path class="st1" d="M256.69,128.61c0.97,0.99,1.46,2.37,1.46,4.12v11.29h-3.82v-10.85c0-1.82-0.8-2.73-2.41-2.73
		c-1.53,0-2.77,0.89-3.73,2.66v10.91h-3.86v-10.91c0-0.92-0.22-1.59-0.67-2.02c-0.45-0.43-1.03-0.64-1.74-0.64
		c-0.77,0-1.48,0.24-2.13,0.72c-0.65,0.48-1.18,1.13-1.6,1.94v10.91h-3.86v-16.43h2.95l0.41,2.29h0.09c0.63-0.96,1.34-1.66,2.13-2.1
		c0.79-0.44,1.72-0.66,2.79-0.66c1.21,0,2.21,0.24,3.01,0.72c0.79,0.48,1.4,1.21,1.82,2.19c1.32-1.94,3.07-2.92,5.27-2.92
		C254.41,127.12,255.72,127.62,256.69,128.61z"/>
	<path class="st1" d="M274.76,139.82l1.5,2.45c-1.86,1.48-4.16,2.23-6.9,2.23c-1.55,0-2.94-0.32-4.17-0.96
		c-1.23-0.64-2.21-1.6-2.93-2.9c-0.72-1.29-1.08-2.88-1.08-4.76c0-1.75,0.33-3.29,0.99-4.61c0.66-1.32,1.59-2.34,2.79-3.06
		c1.2-0.72,2.59-1.08,4.15-1.08c1.59,0,2.93,0.35,4.03,1.05c1.1,0.7,1.92,1.63,2.46,2.81c0.54,1.17,0.82,2.44,0.82,3.82
		c0,0.92-0.06,1.64-0.19,2.16h-11.25c0.38,3.01,2.01,4.51,4.89,4.51C271.73,141.48,273.36,140.92,274.76,139.82z M266.28,131.12
		c-0.74,0.74-1.19,1.84-1.33,3.31h7.99c-0.04-1.4-0.38-2.49-1.02-3.26c-0.64-0.77-1.54-1.16-2.71-1.16
		C268,130,267.02,130.38,266.28,131.12z"/>
	<path class="st1" d="M279.75,127.59h2.88l0.63,2.41h0.09c0.82-1.92,2.13-2.88,3.95-2.88c0.77,0,1.44,0.16,2.01,0.47l-0.66,3.39
		c-0.56-0.21-1.11-0.31-1.63-0.31c-0.77,0-1.45,0.27-2.04,0.81c-0.59,0.54-1.07,1.41-1.44,2.6v9.94h-3.79V127.59z"/>
	<path class="st1" d="M295.53,144.02h-3.76v-23.57h3.76V144.02z"/>
	<path class="st1" d="M315,127.56l-6.3,17.49c-0.69,1.9-1.55,3.31-2.59,4.23c-1.03,0.92-2.33,1.38-3.87,1.38
		c-0.73,0-1.36-0.05-1.88-0.14c-0.52-0.09-1.05-0.22-1.57-0.39l0.69-2.85c0.31,0.1,0.67,0.19,1.08,0.27
		c0.41,0.07,0.78,0.11,1.11,0.11c0.61,0,1.18-0.21,1.71-0.63c0.53-0.42,0.95-1.01,1.24-1.79l0.28-0.72l-6.8-16.96h3.92l4.7,13.07
		l4.26-13.07H315z"/>
	<path class="st1" d="M328.85,142.48c-1.59-1.33-2.38-3.39-2.38-6.18v-13.63h3.84v13.6c0,1.48,0.4,2.63,1.21,3.43
		c0.8,0.8,1.95,1.21,3.43,1.21s2.63-0.4,3.45-1.21c0.81-0.8,1.22-1.95,1.22-3.43v-13.6h3.81v13.63c0,2.79-0.79,4.84-2.38,6.18
		c-1.59,1.33-3.62,2-6.1,2C332.46,144.48,330.43,143.81,328.85,142.48z"/>
	<path class="st1" d="M359.78,122.8c1.16,0.4,2.16,0.89,2.99,1.48l-1.62,2.87c-0.77-0.55-1.63-0.98-2.56-1.3
		c-0.94-0.32-1.83-0.47-2.68-0.47c-1.16,0-2.06,0.24-2.71,0.73c-0.65,0.49-0.98,1.15-0.98,1.98c0,0.57,0.19,1.06,0.58,1.46
		c0.39,0.41,0.86,0.74,1.42,1.01c0.56,0.26,1.37,0.6,2.42,1.01c1.42,0.53,2.56,1.01,3.42,1.45c0.85,0.44,1.6,1.06,2.23,1.86
		c0.63,0.8,0.95,1.82,0.95,3.04c0,1.3-0.33,2.44-0.99,3.42c-0.66,0.98-1.6,1.73-2.82,2.26c-1.22,0.53-2.63,0.79-4.24,0.79
		c-1.32,0-2.66-0.18-4.01-0.53c-1.35-0.36-2.54-0.85-3.55-1.48l1.25-3.14c0.98,0.53,2.01,0.95,3.11,1.27
		c1.1,0.32,2.17,0.47,3.2,0.47c1.34,0,2.34-0.26,3-0.78c0.66-0.52,0.99-1.21,0.99-2.06c0-0.81-0.35-1.45-1.04-1.91
		c-0.69-0.46-1.76-0.94-3.2-1.45c-1.46-0.51-2.64-0.98-3.52-1.42c-0.88-0.44-1.64-1.07-2.27-1.89c-0.63-0.82-0.95-1.9-0.95-3.22
		c0-1.2,0.31-2.26,0.95-3.17c0.63-0.92,1.53-1.62,2.68-2.12c1.16-0.5,2.51-0.75,4.06-0.75C357.32,122.21,358.62,122.41,359.78,122.8
		z"/>
	<path class="st1" d="M381.01,122.74c1.23,0.36,2.24,0.84,3.04,1.45l-1.8,2.99c-1.42-0.98-3.12-1.46-5.09-1.46
		c-1.2,0-2.29,0.28-3.26,0.84c-0.98,0.56-1.75,1.42-2.33,2.58c-0.58,1.16-0.87,2.59-0.87,4.3c0,2.48,0.59,4.35,1.77,5.61
		c1.18,1.26,2.74,1.89,4.67,1.89c1.08,0,2.06-0.16,2.94-0.47c0.88-0.32,1.72-0.8,2.52-1.45l1.92,2.78c-0.89,0.81-2,1.46-3.31,1.95
		c-1.31,0.49-2.75,0.73-4.32,0.73c-1.99,0-3.76-0.42-5.31-1.27c-1.55-0.84-2.76-2.1-3.63-3.77c-0.87-1.67-1.31-3.69-1.31-6.07
		c0-2.38,0.45-4.41,1.36-6.08c0.9-1.68,2.14-2.94,3.71-3.8c1.57-0.85,3.35-1.28,5.37-1.28
		C378.47,122.21,379.78,122.39,381.01,122.74z"/>
	<path class="st1" d="M410.59,122.15c1.26,0.37,2.3,0.86,3.12,1.49l-1.85,3.07c-1.46-1-3.21-1.5-5.24-1.5
		c-1.23,0-2.35,0.29-3.35,0.86c-1,0.58-1.8,1.46-2.4,2.65c-0.6,1.19-0.89,2.67-0.89,4.42c0,2.55,0.61,4.47,1.82,5.77
		c1.21,1.3,2.81,1.94,4.8,1.94c1.11,0,2.12-0.16,3.03-0.49c0.91-0.32,1.77-0.82,2.59-1.49l1.98,2.85c-0.92,0.84-2.05,1.5-3.4,2.01
		c-1.35,0.5-2.83,0.75-4.44,0.75c-2.05,0-3.87-0.43-5.46-1.3c-1.59-0.87-2.83-2.16-3.73-3.87c-0.9-1.71-1.35-3.79-1.35-6.24
		c0-2.45,0.46-4.53,1.39-6.25c0.93-1.72,2.2-3.02,3.81-3.9c1.61-0.88,3.45-1.32,5.52-1.32C407.97,121.6,409.32,121.79,410.59,122.15
		z"/>
	<path class="st1" d="M432.01,141.35l-0.28,2.48c-0.4,0.33-1.07,0.5-2.01,0.5c-1.59,0-2.54-0.74-2.85-2.23
		c-1.34,1.59-3.06,2.38-5.17,2.38c-1.55,0-2.84-0.43-3.89-1.3c-1.04-0.87-1.57-2.06-1.57-3.59c0-1.63,0.62-2.87,1.87-3.71
		c1.24-0.85,2.82-1.27,4.72-1.27c1.15,0,2.35,0.13,3.61,0.38v-1.63c0-2.09-1.16-3.13-3.48-3.13c-1.5,0-2.97,0.5-4.39,1.5l-1.47-2.38
		c0.86-0.71,1.84-1.26,2.95-1.65c1.11-0.39,2.27-0.58,3.48-0.58c2.19,0,3.86,0.52,4.98,1.55c1.13,1.03,1.69,2.52,1.69,4.47v6.99
		c0,0.84,0.32,1.25,0.97,1.25C431.57,141.38,431.85,141.37,432.01,141.35z M424.8,141.04c0.71-0.4,1.27-0.93,1.69-1.6v-2.01
		c-0.42-0.1-0.94-0.2-1.55-0.28c-0.62-0.08-1.2-0.12-1.74-0.12c-1,0-1.82,0.19-2.45,0.58c-0.63,0.39-0.94,0.99-0.94,1.8
		c0,0.75,0.27,1.31,0.8,1.68c0.53,0.37,1.17,0.55,1.9,0.55C423.33,141.64,424.09,141.44,424.8,141.04z"/>
	<path class="st1" d="M434.61,127.59h2.57l0.6,2.45h0.13c0.79-0.96,1.63-1.69,2.51-2.18c0.88-0.49,1.93-0.74,3.17-0.74
		c1.75,0,3.12,0.48,4.11,1.44c0.98,0.96,1.47,2.34,1.47,4.14v11.32h-3.76v-10.12c0-1.17-0.23-2-0.67-2.48
		c-0.45-0.48-1.1-0.72-1.96-0.72c-1.69,0-3.17,0.9-4.42,2.7v10.63h-3.73V127.59z"/>
	<path class="st1" d="M467.8,141.35l-0.28,2.48c-0.4,0.33-1.07,0.5-2.01,0.5c-1.59,0-2.54-0.74-2.85-2.23
		c-1.34,1.59-3.06,2.38-5.17,2.38c-1.55,0-2.84-0.43-3.89-1.3c-1.04-0.87-1.57-2.06-1.57-3.59c0-1.63,0.62-2.87,1.87-3.71
		c1.24-0.85,2.82-1.27,4.72-1.27c1.15,0,2.35,0.13,3.61,0.38v-1.63c0-2.09-1.16-3.13-3.48-3.13c-1.5,0-2.97,0.5-4.39,1.5l-1.47-2.38
		c0.86-0.71,1.84-1.26,2.95-1.65c1.11-0.39,2.27-0.58,3.48-0.58c2.19,0,3.86,0.52,4.98,1.55c1.13,1.03,1.69,2.52,1.69,4.47v6.99
		c0,0.84,0.32,1.25,0.97,1.25C467.35,141.38,467.63,141.37,467.8,141.35z M460.59,141.04c0.71-0.4,1.27-0.93,1.69-1.6v-2.01
		c-0.42-0.1-0.94-0.2-1.55-0.28c-0.62-0.08-1.2-0.12-1.74-0.12c-1,0-1.82,0.19-2.45,0.58c-0.63,0.39-0.94,0.99-0.94,1.8
		c0,0.75,0.27,1.31,0.8,1.68c0.53,0.37,1.17,0.55,1.9,0.55C459.12,141.64,459.88,141.44,460.59,141.04z"/>
	<path class="st1" d="M473.13,143.58c-1.1-0.61-2-1.57-2.71-2.88c-0.71-1.32-1.07-2.96-1.07-4.92c0-1.88,0.33-3.47,1-4.78
		c0.67-1.31,1.55-2.28,2.65-2.92c1.1-0.64,2.27-0.96,3.53-0.96c1.8,0,3.29,0.52,4.48,1.57v-8.24h3.76v23.57h-2.7l-0.5-1.91h-0.06
		c-0.58,0.73-1.3,1.31-2.15,1.74c-0.85,0.43-1.76,0.64-2.74,0.64C475.39,144.49,474.23,144.18,473.13,143.58z M479.42,140.48
		c0.65-0.38,1.18-0.88,1.6-1.5v-6.74c-0.96-1.13-2.19-1.69-3.7-1.69c-1.17,0-2.15,0.44-2.95,1.33c-0.79,0.89-1.19,2.18-1.19,3.87
		c0,1.15,0.2,2.13,0.6,2.93c0.4,0.8,0.91,1.4,1.54,1.79c0.63,0.39,1.3,0.58,2.01,0.58C478.07,141.04,478.77,140.85,479.42,140.48z"
		/>
	<path class="st1" d="M503.62,141.35l-0.28,2.48c-0.4,0.33-1.07,0.5-2.01,0.5c-1.59,0-2.54-0.74-2.85-2.23
		c-1.34,1.59-3.06,2.38-5.17,2.38c-1.55,0-2.84-0.43-3.89-1.3c-1.04-0.87-1.57-2.06-1.57-3.59c0-1.63,0.62-2.87,1.87-3.71
		c1.24-0.85,2.82-1.27,4.72-1.27c1.15,0,2.35,0.13,3.61,0.38v-1.63c0-2.09-1.16-3.13-3.48-3.13c-1.5,0-2.97,0.5-4.39,1.5l-1.47-2.38
		c0.86-0.71,1.84-1.26,2.95-1.65s2.27-0.58,3.48-0.58c2.19,0,3.86,0.52,4.98,1.55c1.13,1.03,1.69,2.52,1.69,4.47v6.99
		c0,0.84,0.32,1.25,0.97,1.25C503.17,141.38,503.45,141.37,503.62,141.35z M496.41,141.04c0.71-0.4,1.27-0.93,1.69-1.6v-2.01
		c-0.42-0.1-0.94-0.2-1.55-0.28c-0.62-0.08-1.2-0.12-1.74-0.12c-1,0-1.82,0.19-2.45,0.58c-0.63,0.39-0.94,0.99-0.94,1.8
		c0,0.75,0.27,1.31,0.8,1.68c0.53,0.37,1.17,0.55,1.9,0.55C494.94,141.64,495.7,141.44,496.41,141.04z"/>
</g>
</svg>
